PathFileType	4	(X/Y/Z)	 s05c0203.trc
DataRate	CameraRate	NumFrames	NumMarkers	Units	OrigDataRate	OrigDataStartFrame	OrigNumFrames
200	200	4	47	mm	200	1751	2000
Frame#	Time	racr			lacr			c7			jug			rlel			rdr			llel			ldr			s2			lic			ric			lasi			rasi			rpsi			lpsi			rgt			lgt			rth1			rth2			rth3			rth4			rlfc			rsh1			rsh2			rsh3			rsh4			rlmal			rcal			rtoe			rmt5			lth1			lth2			lth4			lth3			llfc			lmfc			lsh1			lsh2			lsh3			lsh4			llmal			lcal			ltoe			lmt5			SBIKE			LBIKE			RBIKE			
		X1	Y1	Z1	X2	Y2	Z2	X3	Y3	Z3	X4	Y4	Z4	X5	Y5	Z5	X6	Y6	Z6	X7	Y7	Z7	X8	Y8	Z8	X9	Y9	Z9	X10	Y10	Z10	X11	Y11	Z11	X12	Y12	Z12	X13	Y13	Z13	X14	Y14	Z14	X15	Y15	Z15	X16	Y16	Z16	X17	Y17	Z17	X18	Y18	Z18	X19	Y19	Z19	X20	Y20	Z20	X21	Y21	Z21	X22	Y22	Z22	X23	Y23	Z23	X24	Y24	Z24	X25	Y25	Z25	X26	Y26	Z26	X27	Y27	Z27	X28	Y28	Z28	X29	Y29	Z29	X30	Y30	Z30	X31	Y31	Z31	X32	Y32	Z32	X33	Y33	Z33	X34	Y34	Z34	X35	Y35	Z35	X36	Y36	Z36	X37	Y37	Z37	X38	Y38	Z38	X39	Y39	Z39	X40	Y40	Z40	X41	Y41	Z41	X42	Y42	Z42	X43	Y43	Z43	X44	Y44	Z44	X45	Y45	Z45	X46	Y46	Z46	X47	Y47	Z47	
1751	8.7550	485.050783	1232.728409	-117.467264	498.248098	1226.060042	-371.660080	478.773102	1313.905318	-249.898305	398.941015	1173.298773	-247.294005	491.182488	1056.824702	94.737964	665.315593	960.911104	-38.673207	505.003621	1079.891440	-629.034413	671.913856	962.780682	-479.804612	-113.008155	1190.230911	-283.474412	43.105247	1181.829554	-422.061788	20.161115	1216.260817	-139.364621	79.803057	1125.293015	-376.412035	67.008955	1159.206299	-162.054917	-79.131158	1242.292057	-248.221031	-69.419302	1235.561800	-333.183914	-6.043274	1111.585407	-100.778404	-35.649740	1080.944795	-439.308191	103.645751	1075.698365	-97.857747	193.218210	1072.775917	-103.111798	266.615214	1025.578007	-105.804161	201.621280	1105.017886	-120.246076	401.660741	965.695731	-137.903027	328.516399	890.854010	-113.109714	301.168007	806.360821	-118.118885	239.738526	747.313233	-117.003910	328.481924	790.766185	-140.275369	168.264209	625.139051	-115.594988	91.975101	615.780155	-160.092708	355.554259	482.753295	-147.291628	252.575241	502.950385	-84.457585	36.451153	957.259700	-456.959615	97.799354	897.254267	-454.848730	129.257902	913.777730	-443.306008	120.464875	809.547853	-454.302100	182.595844	678.202886	-423.562923	169.473703	664.733824	-315.892452	126.330816	563.391585	-450.699535	127.928706	476.937593	-440.950961	84.409581	398.926784	-438.480158	158.983891	471.106843	-419.004480	67.341623	280.561498	-432.321883	3.104532	256.865413	-388.421994	279.067264	155.022734	-395.109961	168.259764	159.554762	-458.426475	-259.062654	895.085118	-280.388714	-43.514188	84.934587	-474.780884	-51.861578	80.225623	-77.272537	
1752	8.7600	483.675781	1231.774981	-117.082361	498.392005	1224.601192	-369.778899	478.197888	1313.537973	-248.613423	398.185080	1173.025809	-247.303893	489.948927	1055.596461	95.173536	665.113136	960.840402	-38.058774	504.899415	1079.867515	-628.110755	671.385471	962.790568	-478.971481	-113.934417	1191.486652	-283.907119	42.437367	1182.454910	-422.389859	19.149296	1217.389938	-139.588208	78.879267	1125.932943	-376.829776	65.940909	1159.882362	-162.020832	-79.857934	1243.546748	-248.481632	-70.175751	1236.497144	-333.444647	-7.184054	1112.626657	-101.117934	-36.264165	1081.703489	-439.665935	102.341949	1075.521985	-97.860969	191.813113	1071.650090	-102.880376	264.994376	1023.966656	-105.153412	200.680481	1103.803888	-120.098743	399.491066	962.860959	-137.975320	326.306098	886.708446	-113.065759	300.476392	801.876337	-117.801692	239.842541	741.711340	-117.070914	328.095732	786.655501	-139.791263	170.948360	618.160599	-115.816935	95.088399	605.307172	-160.889425	364.712670	485.293328	-146.094921	260.552437	499.984456	-83.884202	37.740159	958.342884	-457.282442	99.929901	899.353833	-454.212450	131.086849	916.413002	-442.524541	123.871434	811.959967	-453.020804	187.206670	681.328273	-423.254925	173.557880	667.830806	-315.841842	128.357271	567.597006	-450.392321	127.759103	481.112859	-440.570184	82.268693	404.243063	-438.202814	158.552055	474.615324	-418.535936	61.931515	286.710986	-432.197202	-2.943399	264.870442	-388.105033	269.677792	154.574730	-395.188628	159.107197	162.736317	-458.327954	-259.330276	895.160515	-280.317110	-43.532673	84.961562	-474.784354	-51.853223	80.230804	-77.287521	
1753	8.7650	482.406652	1231.564868	-115.952457	498.523433	1223.261548	-367.983923	477.553282	1313.367002	-247.371299	397.596145	1172.829087	-246.551588	488.701398	1054.506484	95.461825	664.937337	960.862182	-37.359416	504.660663	1079.850908	-627.288385	670.743143	962.815425	-478.135163	-114.789066	1192.401541	-284.094563	41.511947	1183.031211	-422.465745	18.229837	1218.338660	-139.785328	77.850402	1126.266754	-376.976128	64.830294	1160.548576	-162.057439	-80.546817	1244.384884	-248.717464	-70.835557	1237.444606	-333.699808	-8.391735	1113.602280	-101.460614	-36.805041	1082.414733	-440.092523	100.923197	1074.780307	-97.807434	190.121802	1070.516244	-102.003497	263.114416	1021.240771	-104.787493	199.867454	1101.858524	-119.681491	396.359370	958.193266	-137.101085	323.399861	881.876505	-112.518453	299.320303	796.030893	-117.567166	239.756976	734.787073	-117.030416	327.178506	780.870674	-139.673947	173.491171	609.915228	-116.284988	98.284169	593.692563	-161.639339	373.512909	487.298550	-144.932203	268.337141	496.396752	-83.261840	39.355687	959.658859	-457.561091	102.487981	901.754831	-453.547635	133.246185	919.250675	-441.660178	127.939205	814.768299	-451.789926	192.550642	684.795420	-422.983131	178.310944	671.692741	-315.296398	131.189877	572.273686	-450.184744	128.339565	485.881492	-440.452398	80.763499	410.172028	-438.140179	158.520761	478.324790	-417.482421	57.104661	293.568625	-432.180289	-8.491000	273.961783	-388.085828	260.351554	154.480286	-395.186239	150.114094	166.490703	-458.268407	-259.342584	895.149337	-280.199398	-43.523476	84.998949	-474.758427	-51.855574	80.235636	-77.255606	
1754	8.7700	481.188905	1232.168776	-114.162341	498.809126	1222.152264	-366.371116	477.218187	1313.588101	-246.609897	397.041551	1173.187128	-245.476278	487.392913	1053.624282	95.487309	664.828950	960.849294	-36.590177	504.311270	1079.894147	-626.527243	670.118559	962.795359	-477.408666	-115.609489	1193.162066	-284.113295	40.789847	1183.473770	-422.603206	17.328176	1219.124705	-139.952356	76.900034	1126.609076	-377.198602	63.847314	1160.954505	-161.923241	-81.223334	1244.997002	-248.737451	-71.526458	1238.145199	-333.817749	-9.560660	1114.000276	-101.950639	-37.167954	1083.136048	-440.514564	99.790491	1073.763891	-97.419544	188.883150	1067.719634	-101.847476	261.023597	1017.362646	-104.451563	199.059878	1099.351628	-119.187061	393.531792	952.892414	-136.580758	320.339600	874.551527	-112.302472	298.003509	788.897510	-117.182901	239.483831	726.538803	-117.085426	326.334017	774.134078	-139.064079	176.101203	600.756244	-116.778299	101.877674	580.929427	-162.286611	381.813289	488.430862	-144.335306	276.115364	492.174534	-82.903875	41.213828	961.063260	-457.724357	105.643049	904.600983	-453.626833	135.776980	922.514106	-440.672554	132.532033	817.951943	-450.699649	198.617692	688.692441	-422.687707	183.869296	675.541774	-315.119418	134.614972	577.351818	-449.984031	129.419812	491.037166	-440.307780	79.904281	416.677173	-438.188029	159.311024	482.733498	-417.207791	52.833604	300.942309	-432.231061	-13.424656	283.485278	-388.055286	251.198373	154.917514	-395.293425	141.488419	170.909117	-458.284846	-259.404704	895.164299	-280.078225	-43.537384	85.040766	-474.726483	-51.852762	80.225604	-77.257569	
